<?xml version="1.0" encoding="UTF-8"?>
<!DOCTYPE svg PUBLIC "-//W3C//DTD SVG 1.1//EN" "http://www.w3.org/Graphics/SVG/1.1/DTD/svg11.dtd">
<svg xmlns="http://www.w3.org/2000/svg" version="1.1" width="512px" height="512px" style="shape-rendering:geometricPrecision; text-rendering:geometricPrecision; image-rendering:optimizeQuality; fill-rule:evenodd; clip-rule:evenodd" xmlns:xlink="http://www.w3.org/1999/xlink">
<g><path style="opacity:0.996" fill="#ffffffff" d="M 511.5,67.5 C 511.5,171.5 511.5,275.5 511.5,379.5C 508.017,389.149 501.35,395.649 491.5,399C 434.168,399.5 376.834,399.667 319.5,399.5C 319.5,407.5 319.5,415.5 319.5,423.5C 328.839,423.334 338.173,423.5 347.5,424C 348.416,424.374 349.25,424.874 350,425.5C 351.124,431.395 351.624,437.395 351.5,443.5C 351.333,448.833 351.167,454.167 351,459.5C 350.626,460.416 350.126,461.25 349.5,462C 318.251,463.16 286.917,463.66 255.5,463.5C 224.083,463.66 192.749,463.16 161.5,462C 160.874,461.25 160.374,460.416 160,459.5C 159.833,454.167 159.667,448.833 159.5,443.5C 159.376,437.395 159.876,431.395 161,425.5C 161.75,424.874 162.584,424.374 163.5,424C 172.827,423.5 182.161,423.334 191.5,423.5C 191.5,415.5 191.5,407.5 191.5,399.5C 134.166,399.667 76.8324,399.5 19.5,399C 9.64981,395.649 2.98314,389.149 -0.5,379.5C -0.5,275.5 -0.5,171.5 -0.5,67.5C 2.98314,57.8514 9.64981,51.3514 19.5,48C 176.833,47.3333 334.167,47.3333 491.5,48C 501.35,51.3514 508.017,57.8514 511.5,67.5 Z M 27.5,63.5 C 179.5,63.3333 331.5,63.5 483.5,64C 490,65.1667 493.833,69 495,75.5C 495.5,164.833 495.667,254.166 495.5,343.5C 335.5,343.5 175.5,343.5 15.5,343.5C 15.3333,254.166 15.5,164.833 16,75.5C 17.348,68.9875 21.1813,64.9875 27.5,63.5 Z M 15.5,359.5 C 175.5,359.5 335.5,359.5 495.5,359.5C 495.984,365.711 495.151,371.711 493,377.5C 490.658,380.754 487.491,382.588 483.5,383C 331.5,383.667 179.5,383.667 27.5,383C 21,381.833 17.1667,378 16,371.5C 15.5012,367.514 15.3345,363.514 15.5,359.5 Z M 207.5,399.5 C 239.5,399.5 271.5,399.5 303.5,399.5C 303.5,407.5 303.5,415.5 303.5,423.5C 271.5,423.5 239.5,423.5 207.5,423.5C 207.5,415.5 207.5,407.5 207.5,399.5 Z M 175.5,439.5 C 228.833,439.5 282.167,439.5 335.5,439.5C 335.5,442.167 335.5,444.833 335.5,447.5C 282.167,447.5 228.833,447.5 175.5,447.5C 175.5,444.833 175.5,442.167 175.5,439.5 Z"/></g>
</svg>
