<?xml version="1.0" encoding="UTF-8"?>
<!DOCTYPE svg PUBLIC "-//W3C//DTD SVG 1.1//EN" "http://www.w3.org/Graphics/SVG/1.1/DTD/svg11.dtd">
<svg xmlns="http://www.w3.org/2000/svg" version="1.1" width="512px" height="512px" style="shape-rendering:geometricPrecision; text-rendering:geometricPrecision; image-rendering:optimizeQuality; fill-rule:evenodd; clip-rule:evenodd" xmlns:xlink="http://www.w3.org/1999/xlink">
<g><path style="opacity:0.948" fill="#ffffffff" d="M 256.5,-0.5 C 335.5,-0.5 414.5,-0.5 493.5,-0.5C 501.833,3.16667 507.833,9.16667 511.5,17.5C 511.5,176.167 511.5,334.833 511.5,493.5C 507.833,501.833 501.833,507.833 493.5,511.5C 363.5,511.5 233.5,511.5 103.5,511.5C 84.7054,502.957 79.8721,489.29 89,470.5C 92.4136,465.748 96.9136,462.581 102.5,461C 113.445,459.621 124.445,459.121 135.5,459.5C 135.5,448.5 135.5,437.5 135.5,426.5C 101.832,426.667 68.165,426.5 34.5,426C 16.5287,421.859 4.86203,411.026 -0.5,393.5C -0.5,313.167 -0.5,232.833 -0.5,152.5C 4.53999,133.963 16.54,122.796 35.5,119C 102.833,118.5 170.166,118.333 237.5,118.5C 237.333,86.8316 237.5,55.1649 238,23.5C 239.506,11.8363 245.672,3.8363 256.5,-0.5 Z M 260.5,17.5 C 336.834,17.3333 413.167,17.5 489.5,18C 490.667,19.1667 491.833,20.3333 493,21.5C 493.667,177.5 493.667,333.5 493,489.5C 491.833,490.667 490.667,491.833 489.5,493C 428.501,493.5 367.501,493.667 306.5,493.5C 309.292,475.564 301.958,464.398 284.5,460C 274.839,459.5 265.172,459.334 255.5,459.5C 255.5,448.5 255.5,437.5 255.5,426.5C 289.168,426.667 322.835,426.5 356.5,426C 376.306,422.194 388.14,410.36 392,390.5C 392.667,311.833 392.667,233.167 392,154.5C 387.833,135 376,123.167 356.5,119C 322.835,118.5 289.168,118.333 255.5,118.5C 255.333,87.4982 255.5,56.4982 256,25.5C 256.451,22.2224 257.951,19.5558 260.5,17.5 Z M 290.5,59.5 C 346.833,59.5 403.167,59.5 459.5,59.5C 459.5,64.8333 459.5,70.1667 459.5,75.5C 403.167,75.5 346.833,75.5 290.5,75.5C 290.5,70.1667 290.5,64.8333 290.5,59.5 Z M 37.5,136.5 C 142.834,136.333 248.167,136.5 353.5,137C 364.333,139.833 371.167,146.667 374,157.5C 374.5,226.833 374.667,296.166 374.5,365.5C 255.5,365.5 136.5,365.5 17.5,365.5C 17.3333,295.499 17.5,225.499 18,155.5C 21.1125,145.553 27.6125,139.219 37.5,136.5 Z M 440.5,136.5 C 448.87,136.681 452.037,140.681 450,148.5C 444.837,154.062 440.171,153.729 436,147.5C 434.776,142.626 436.276,138.959 440.5,136.5 Z M 441.5,204.5 C 450.527,205.771 453.027,210.437 449,218.5C 439.785,222.623 435.452,219.623 436,209.5C 437.406,207.256 439.239,205.59 441.5,204.5 Z M 17.5,383.5 C 136.5,383.5 255.5,383.5 374.5,383.5C 373.384,396.247 366.718,404.413 354.5,408C 248.833,408.667 143.167,408.667 37.5,408C 24.7738,404.774 18.1071,396.608 17.5,383.5 Z M 153.5,426.5 C 181.5,426.5 209.5,426.5 237.5,426.5C 237.5,437.5 237.5,448.5 237.5,459.5C 209.5,459.5 181.5,459.5 153.5,459.5C 153.5,448.5 153.5,437.5 153.5,426.5 Z M 109.5,477.5 C 167.168,477.333 224.834,477.5 282.5,478C 290.767,482.146 291.433,487.146 284.5,493C 225.5,493.667 166.5,493.667 107.5,493C 102.566,490.335 101.399,486.502 104,481.5C 105.5,479.531 107.333,478.198 109.5,477.5 Z"/></g>
<g><path style="opacity:0.947" fill="#ffffffff" d="M 286.5,41.5 C 345.501,41.3333 404.501,41.5 463.5,42C 470.294,43.1462 474.794,46.9795 477,53.5C 477.667,63.1667 477.667,72.8333 477,82.5C 474.833,87.3333 471.333,90.8333 466.5,93C 405.5,93.6667 344.5,93.6667 283.5,93C 278.667,90.8333 275.167,87.3333 273,82.5C 272.333,72.8333 272.333,63.1667 273,53.5C 275.404,47.0615 279.904,43.0615 286.5,41.5 Z M 290.5,59.5 C 290.5,64.8333 290.5,70.1667 290.5,75.5C 346.833,75.5 403.167,75.5 459.5,75.5C 459.5,70.1667 459.5,64.8333 459.5,59.5C 403.167,59.5 346.833,59.5 290.5,59.5 Z"/></g>
<g><path style="opacity:0.935" fill="#ffffffff" d="M 437.5,118.5 C 454.399,116.854 464.899,124.187 469,140.5C 470.399,155.531 463.899,165.365 449.5,170C 426.499,171.331 415.999,160.498 418,137.5C 421.112,127.553 427.612,121.219 437.5,118.5 Z M 440.5,136.5 C 436.276,138.959 434.776,142.626 436,147.5C 440.171,153.729 444.837,154.062 450,148.5C 452.037,140.681 448.87,136.681 440.5,136.5 Z"/></g>
<g><path style="opacity:0.92" fill="#ffffffff" d="M 73.5,152.5 C 83.3721,152.527 86.8721,157.194 84,166.5C 71.5,179 59,191.5 46.5,204C 34.1928,204.895 30.6928,199.728 36,188.5C 48.0921,175.905 60.5921,163.905 73.5,152.5 Z"/></g>
<g><path style="opacity:0.927" fill="#ffffffff" d="M 124.5,152.5 C 135.66,153.158 138.827,158.491 134,168.5C 105.5,197 77,225.5 48.5,254C 37.4164,257.91 32.583,254.077 34,242.5C 64.0616,212.271 94.2283,182.271 124.5,152.5 Z"/></g>
<g><path style="opacity:0.934" fill="#ffffffff" d="M 439.5,186.5 C 459.797,186.962 469.63,197.295 469,217.5C 462.608,236.611 449.775,242.777 430.5,236C 416.969,226.201 413.802,213.701 421,198.5C 425.668,192.089 431.835,188.089 439.5,186.5 Z M 441.5,204.5 C 439.239,205.59 437.406,207.256 436,209.5C 435.452,219.623 439.785,222.623 449,218.5C 453.027,210.437 450.527,205.771 441.5,204.5 Z"/></g>
<g><path style="opacity:0.913" fill="#ffffffff" d="M 329.5,442.5 C 335.305,441.804 339.139,444.138 341,449.5C 341.667,456.833 341.667,464.167 341,471.5C 338.598,477.092 334.431,478.925 328.5,477C 326.333,476.167 324.833,474.667 324,472.5C 323.333,464.167 323.333,455.833 324,447.5C 325.73,445.598 327.563,443.931 329.5,442.5 Z"/></g>
<g><path style="opacity:0.911" fill="#ffffffff" d="M 364.5,442.5 C 369.382,442.175 372.882,444.175 375,448.5C 375.667,456.167 375.667,463.833 375,471.5C 373.877,475.819 371.044,477.819 366.5,477.5C 362.497,477.751 359.664,476.084 358,472.5C 357.333,464.5 357.333,456.5 358,448.5C 359.436,445.558 361.603,443.558 364.5,442.5 Z"/></g>
<g><path style="opacity:0.911" fill="#ffffffff" d="M 398.5,442.5 C 403.382,442.175 406.882,444.175 409,448.5C 409.667,456.5 409.667,464.5 409,472.5C 407.336,476.084 404.503,477.751 400.5,477.5C 395.956,477.819 393.123,475.819 392,471.5C 391.333,463.833 391.333,456.167 392,448.5C 393.436,445.558 395.603,443.558 398.5,442.5 Z"/></g>
<g><path style="opacity:0.913" fill="#ffffffff" d="M 432.5,442.5 C 436.95,442.142 440.45,443.808 443,447.5C 443.667,455.833 443.667,464.167 443,472.5C 440.103,477.155 435.937,478.655 430.5,477C 428.274,475.773 426.774,473.939 426,471.5C 425.095,463.089 425.428,454.755 427,446.5C 428.5,444.531 430.333,443.198 432.5,442.5 Z"/></g>
<g><path style="opacity:0.915" fill="#ffffffff" d="M 466.5,442.5 C 470.987,442.161 474.487,443.827 477,447.5C 477.667,455.833 477.667,464.167 477,472.5C 474.103,477.155 469.937,478.655 464.5,477C 462.622,475.457 461.122,473.624 460,471.5C 459.333,464.167 459.333,456.833 460,449.5C 461.045,445.96 463.212,443.626 466.5,442.5 Z"/></g>
</svg>
