<?xml version="1.0" encoding="UTF-8"?>
<!DOCTYPE svg PUBLIC "-//W3C//DTD SVG 1.1//EN" "http://www.w3.org/Graphics/SVG/1.1/DTD/svg11.dtd">
<svg xmlns="http://www.w3.org/2000/svg" version="1.1" width="512px" height="513px" style="shape-rendering:geometricPrecision; text-rendering:geometricPrecision; image-rendering:optimizeQuality; fill-rule:evenodd; clip-rule:evenodd" xmlns:xlink="http://www.w3.org/1999/xlink">
<g><path style="opacity:0.946" fill="#ffffffff" d="M 33.5,-0.5 C 36.5,-0.5 39.5,-0.5 42.5,-0.5C 66.996,14.47 91.6626,29.3034 116.5,44C 117.46,45.4194 118.293,46.9194 119,48.5C 119.333,57.8333 119.667,67.1667 120,76.5C 160.667,117.167 201.333,157.833 242,198.5C 266.333,174.167 290.667,149.833 315,125.5C 305.56,78.5596 320.393,41.3929 359.5,14C 371.75,6.86458 384.75,2.03124 398.5,-0.5C 407.833,-0.5 417.167,-0.5 426.5,-0.5C 433.992,0.715445 441.326,2.88211 448.5,6C 451.981,10.0745 452.814,14.5745 451,19.5C 437.363,34.1379 423.363,48.4713 409,62.5C 408.333,69.5 408.333,76.5 409,83.5C 416.198,90.3638 423.032,97.5305 429.5,105C 436.167,105.667 442.833,105.667 449.5,105C 464.195,89.9708 479.195,75.3041 494.5,61C 500.445,59.5319 504.945,61.3652 508,66.5C 509.034,70.3326 510.2,73.9993 511.5,77.5C 511.5,92.1667 511.5,106.833 511.5,121.5C 497.378,170.591 464.711,196.924 413.5,200.5C 404.439,199.794 395.439,198.96 386.5,198C 367.167,217.333 347.833,236.667 328.5,256C 333.301,259.799 337.801,263.966 342,268.5C 345.011,264.48 348.844,261.647 353.5,260C 363.143,260.092 366.977,264.926 365,274.5C 363.374,277.128 361.374,279.461 359,281.5C 358.333,282.167 358.333,282.833 359,283.5C 402.867,324.368 447.033,364.868 491.5,405C 500.438,413.412 507.105,423.246 511.5,434.5C 511.5,446.167 511.5,457.833 511.5,469.5C 503.081,492.25 487.081,506.583 463.5,512.5C 456.167,512.5 448.833,512.5 441.5,512.5C 431.332,509.918 421.999,505.418 413.5,499C 369.632,452.134 326.132,404.967 283,357.5C 280.463,360.372 277.63,362.872 274.5,365C 266.028,366.86 261.028,363.527 259.5,355C 260.992,349.702 263.992,345.368 268.5,342C 264.701,337.199 260.534,332.699 256,328.5C 236.667,347.833 217.333,367.167 198,386.5C 207.074,433.291 192.24,470.458 153.5,498C 141.257,505.133 128.257,509.967 114.5,512.5C 105.167,512.5 95.8333,512.5 86.5,512.5C 79.0075,511.285 71.6742,509.118 64.5,506C 61.0195,501.925 60.1861,497.425 62,492.5C 76.3333,478.167 90.6667,463.833 105,449.5C 105.667,442.5 105.667,435.5 105,428.5C 97.8333,421.333 90.6667,414.167 83.5,407C 76.8333,406.333 70.1667,406.333 63.5,407C 49.1667,421.333 34.8333,435.667 20.5,450C 15.116,452.421 10.2827,451.588 6,447.5C 3.02189,439.25 0.855227,430.916 -0.5,422.5C -0.5,416.167 -0.5,409.833 -0.5,403.5C 4.14791,364.727 24.1479,336.894 59.5,320C 81.2434,311.182 103.577,309.182 126.5,314C 150.5,290 174.5,266 198.5,242C 157.805,201.639 117.472,160.972 77.5,120C 68.5,119.667 59.5,119.333 50.5,119C 48.481,118.55 46.6477,117.717 45,116.5C 29.5424,91.2364 14.3758,65.9031 -0.5,40.5C -0.5,38.5 -0.5,36.5 -0.5,34.5C 10.1344,22.1982 21.4678,10.5316 33.5,-0.5 Z M 401.5,20.5 C 407.509,20.3338 413.509,20.5005 419.5,21C 409,32.1667 398.5,43.3333 388,54.5C 387.333,66.8333 387.333,79.1667 388,91.5C 397.833,102 407.667,112.5 417.5,123C 419.275,124.439 421.275,125.439 423.5,126C 434.167,126.667 444.833,126.667 455.5,126C 457.246,125.529 458.913,124.862 460.5,124C 471,113.5 481.5,103 492,92.5C 492.949,133.782 474.115,161.615 435.5,176C 418.189,180.895 401.023,180.395 384,174.5C 382.112,174.796 380.278,175.296 378.5,176C 311.333,243.167 244.167,310.333 177,377.5C 175.994,379.534 175.494,381.7 175.5,384C 187.446,430.093 172.446,464.093 130.5,486C 118.594,490.818 106.26,492.484 93.5,491C 104.697,480.137 115.53,468.971 126,457.5C 126.667,445.167 126.667,432.833 126,420.5C 116.197,409.696 106.03,399.196 95.5,389C 93.7254,387.561 91.7254,386.561 89.5,386C 78.8333,385.333 68.1667,385.333 57.5,386C 55.7536,386.471 54.087,387.138 52.5,388C 42,398.5 31.5,409 21,419.5C 20.0355,378.26 38.8688,350.427 77.5,336C 94.8004,331.104 111.967,331.604 129,337.5C 130.888,337.204 132.722,336.704 134.5,336C 201.667,268.833 268.833,201.667 336,134.5C 337.006,132.466 337.506,130.3 337.5,128C 325.554,81.9074 340.554,47.9074 382.5,26C 388.828,23.6729 395.162,21.8396 401.5,20.5 Z M 39.5,22.5 C 58.8056,34.1554 78.1389,45.8221 97.5,57.5C 98.3317,65.8134 98.8317,74.1468 99,82.5C 99.5611,84.7254 100.561,86.7254 102,88.5C 143.333,129.833 184.667,171.167 226,212.5C 226.667,213.167 226.667,213.833 226,214.5C 222.167,218.333 218.333,222.167 214.5,226C 213.833,226.667 213.167,226.667 212.5,226C 170.833,183 128.5,140.667 85.5,99C 76.2556,98.8192 67.089,98.3192 58,97.5C 46.6991,78.0361 35.1991,58.7027 23.5,39.5C 28.855,33.813 34.1883,28.1463 39.5,22.5 Z M 312.5,271.5 C 315.603,273.423 318.603,275.59 321.5,278C 323.954,279.74 325.454,281.907 326,284.5C 311.986,298.681 297.819,312.681 283.5,326.5C 279.849,322.348 276.016,318.348 272,314.5C 271.333,313.833 271.333,313.167 272,312.5C 285.702,298.965 299.202,285.299 312.5,271.5 Z M 341.5,298.5 C 342.922,298.709 344.255,299.209 345.5,300C 389.533,341.035 433.867,381.702 478.5,422C 497.668,443.319 497.001,463.986 476.5,484C 456.654,495.792 438.487,493.625 422,477.5C 381.368,432.533 340.368,387.867 299,343.5C 298.333,342.833 298.333,342.167 299,341.5C 313.369,327.299 327.535,312.965 341.5,298.5 Z"/></g>
<g><path style="opacity:0.891" fill="#ffffffff" d="M 344.5,154.5 C 356.388,154.972 360.221,160.638 356,171.5C 349.231,177.259 343.231,176.592 338,169.5C 335.865,162.45 338.032,157.45 344.5,154.5 Z"/></g>
<g><path style="opacity:0.94" fill="#ffffffff" d="M 317.5,182.5 C 328.859,184.219 332.026,190.219 327,200.5C 284.833,242.667 242.667,284.833 200.5,327C 193.563,330.724 188.063,329.224 184,322.5C 182.96,318.467 183.626,314.801 186,311.5C 228.167,269.333 270.333,227.167 312.5,185C 314.315,184.243 315.981,183.41 317.5,182.5 Z"/></g>
<g><path style="opacity:0.891" fill="#ffffffff" d="M 162.5,336.5 C 173.032,336.199 177.199,341.199 175,351.5C 170.66,357.864 165.16,359.031 158.5,355C 154.458,350.397 153.958,345.564 157,340.5C 158.812,339.023 160.645,337.69 162.5,336.5 Z"/></g>
<g><path style="opacity:0.939" fill="#ffffffff" d="M 353.5,344.5 C 357.229,344.576 360.562,345.743 363.5,348C 393.667,378.167 423.833,408.333 454,438.5C 458.396,447.684 455.729,453.351 446,455.5C 443.109,455.74 440.609,454.907 438.5,453C 408,422.5 377.5,392 347,361.5C 343.226,353.609 345.393,347.942 353.5,344.5 Z"/></g>
</svg>
